<svg xmlns="http://www.w3.org/2000/svg" viewBox="0 0 1000 1000"><defs><clipPath id="clippath"><path d="M469.1 260.49s18.74 9.62 37.52 0c0 0 2.4 19.01-16.96 20.35-22.33 1.55-20.57-20.35-20.57-20.35z" fill="none"/></clipPath><style>.cls-1{fill:#4c200d}.cls-2{fill:#ef806d}.cls-4{fill:#fff}.cls-5{fill:#d48872}.cls-7{fill:#f2a287}.cls-9{fill:#010c39}.cls-11{fill:#d89500}</style></defs><g id="Warstwa_1"><path class="cls-5" d="M558.85 225.79c-10.16 13.65-13.1 36.6-1.8 44.83 11.31 8.23 32.58-1.36 42.74-15.01 10.16-13.65 9.23-31.39-2.08-39.63-11.31-8.23-28.71-3.85-38.87 9.8z"/><path class="cls-9" d="M562.83 252.89c1.31-1.71 3.36-3.63 5.18-5.09 4.24-3.42 9.22-5.9 14.59-6.9.42-.08.24-.73-.18-.65-5.42 1.01-10.42 3.51-14.71 6.94-1.98 1.58-3.92 3.35-5.46 5.37-.26.34.32.68.58.34z"/><path d="M488.72 818.76c-64.16-5.79-122.99-24.38-133.68-58.28l279.31 26.71s-21.49 33.57-100.72 33.57c-14.9 0-30.04-.66-44.9-2z" fill="#015255"/><path d="M648.53 924.53c-.22 12.47-1.31 30.02-5.18 51.76-47.76-.07-95.53-.15-143.29-.23 6.14-39.21 6.82-80.89-1.07-123.96-.48-2.6-.99-5.18-1.51-7.74-.59-.53-3.41-2.97-7.72-2.86-4.21.11-6.87 2.57-7.45 3.14-.43 2.83-.84 5.68-1.24 8.53-5.98 42.42-8.6 83.7-8.54 123.59-44.55.4-89.1.79-133.65 1.18-.72-20.63-.22-38.8.71-53.88.69-11.23 1.91-30.08 6.12-54.59 2.94-17.15 3.22-12.89 6.27-30.64 3.06-17.77 8.69-56.12 10.55-64.65.59-2.71 1.22-5.41 1.87-8.09.36-1.54.71-3.08 1.1-4.6.95-3.86 1.94-7.67 3-11.47V750a438.35 438.35 0 0110.29-32.84l97.23 2.32v-2.32L612.73 720c7.99 7.92 14.35 21.5 19.38 39.33 1.26 4.42 2.42 9.08 3.5 14 3.91 17.81 6.83 38.73 8.88 61.73v.02c.38 4.2.74 8.46 1.04 12.78v.06c.5 6.53.94 13.21 1.3 20 0 0 .02.49.05 1.02.49 10.12 1.26 39.76 1.65 55.59z" fill="#4f004c"/><path class="cls-7" d="M419.77 392.04c70.98-21.89 51.62-94.38 51.62-94.38h70.52s-19.36 72.5 51.62 94.38c4.42 1.36 8.6 2.73 12.59 4.11-56.32 55.73-148.57 41.8-198.71.88-.03-.32-.07-.63-.1-.95 3.95-1.36 8.1-2.7 12.46-4.05z"/><path class="cls-5" d="M539.6 314.84c.46-10.24 2.31-17.19 2.31-17.19l-32.72-3.95v-.61l-2.53.31-2.54-.31v.61l-32.73 3.95s3.16 11.84 2.24 27.4c7.18 14.5 33.02 34.61 65.97-10.21z"/><path class="cls-7" d="M424.08 179.33c-2.97 29.59-5.44 93.35 22.42 121.18 36.64 36.59 100.02 14.93 115.46-22.57 13.33-32.37 13.28-91.66-10.03-130.63-12.07-20.19-37.43-34.88-68.59-33.3-46.24 2.34-58.32 55.99-59.26 65.32z"/><path class="cls-9" d="M483.71 190.6l-.96 18.93-1.53 30.17c-.12 2.31-.23 4.61-.35 6.92 0 .14.11.3.25.32 3.6.7 7.2 1.39 10.8 2.09.42.08.6-.56.18-.65l-6.97-1.35-2.04-.4c-.43-.08-1-.31-1.44-.28-.71.05.24-.23-.09.24.04-.06 0-.2.01-.26.32-.98.12-2.42.17-3.44l.33-6.52c.61-12.1 1.23-24.2 1.84-36.31l.48-9.46c.02-.43-.65-.43-.67 0z"/><path class="cls-2" d="M521.14 254.35c0 7.61 7.14 13.77 15.96 13.77 8.81 0 15.96-6.17 15.96-13.77 0-7.61-7.14-13.77-15.96-13.77-8.81 0-15.96 6.17-15.96 13.77zm-91.53 0c0 7.61 7.14 13.77 15.96 13.77 8.81 0 15.96-6.17 15.96-13.77s-7.14-13.77-15.96-13.77-15.96 6.17-15.96 13.77z"/><path class="cls-1" d="M535.29 200.26c-.59 3.06-6.44 1.54-13.75.15-7.31-1.38-13.32-2.1-12.73-5.16.59-3.06 7-4.42 14.31-3.04 7.31 1.38 12.76 4.98 12.17 8.05zm-67.48-6.12c.61 3.06-5.4 3.8-12.71 5.22-7.31 1.41-13.15 2.97-13.76-.09-.61-3.06 4.83-6.68 12.13-8.1s13.72-.08 14.33 2.97z"/><path class="cls-4" d="M519.88 228.1c0 4.67-2.27 8.45-5.08 8.45s-5.08-3.78-5.08-8.45 2.28-8.45 5.08-8.45c2.81 0 5.08 3.78 5.08 8.45zm-52.03 0c0 4.67-2.27 8.45-5.08 8.45s-5.08-3.78-5.08-8.45 2.27-8.45 5.08-8.45 5.08 3.78 5.08 8.45z"/><path class="cls-7" d="M765.02 601.25c-.08.76-.17 1.55-.27 2.34-.15 1.18-.31 2.38-.51 3.62-.13.88-.29 1.76-.45 2.66-.01.04-.01.08-.02.11-.17.97-.35 1.94-.54 2.93-.02.04-.02.1-.03.16-.11.52-.21 1.04-.33 1.56-1.09 5.25-2.5 10.84-4.19 16.63-.33 1.16-.67 2.32-1.03 3.5-.18.58-.36 1.18-.54 1.76l-.57 1.86c-.18.57-.36 1.13-.55 1.72-.76 2.39-1.56 4.81-2.4 7.26-.2.61-.42 1.22-.63 1.84-.21.61-.43 1.22-.64 1.84-1.41 4.03-2.91 8.12-4.47 12.24-.83 2.17-1.67 4.35-2.53 6.53-.49 1.26-.99 2.53-1.5 3.8-.86 2.17-1.74 4.35-2.64 6.52-.15.36-.29.71-.44 1.07-.34.82-.67 1.63-1.01 2.45-.84 2.03-1.7 4.05-2.56 6.06-.39.94-.8 1.88-1.2 2.82-1.74 4.04-3.49 8.04-5.24 11.98-.44.95-.86 1.9-1.28 2.84-1.1 2.43-2.19 4.84-3.28 7.21-16.68 36.36-32.49 65.58-33.07 66.65.45 9.64-2.56 19.27-4.83 24.99-1.3 3.31-1.38 6.95-.42 10.39 2.76 9.77 4.55 27.17 5.06 32.57.1 1.09.86 6.38-4.55 6.68-3.45.19-4.4-3.6-4.61-4.37-2.21-7.85-12.11-34.63-12.11-34.63l-1.95.28c-1.76 10.33-9.63 32.37-13.45 41.55-.56 1.35-3.5 10.36-8.8 9.4-4.66-.84-3.93-7.42-3.56-11.52 1.1-11.96 11.99-39.66 12.68-41.39-5.54 12.18-25.45 38.91-31.53 46.23-4.02 4.85-7.57 4.73-9.47 3.64-1.25-.72-3.53-3.47-1.36-7.81 1.28-2.56 26.45-51.63 26.45-51.63l-1.29-.88s-12.08 12.07-19.86 18.76c-5.16 4.45-23.49 20.64-29.11 12.98 0 0-4.6-4.4 5.55-11.97 1.36-1.01 27.78-26.58 32.64-32.06 4.28-4.82 6.93-16.02 7.01-17.89.08-1.86-7.04 3.53-13.96 4.77-9.44 1.72-21.83-1.22-18.77-8.12 3.69-8.34 23.21-5.02 37.15-16.97 8.53-7.32 17.2-5.91 22.64-3.72 4.58-14.26 10.57-33.01 16.7-52.28.45-1.41.9-2.83 1.35-4.24.22-.72.46-1.43.68-2.13 1.64-5.19 3.29-10.37 4.92-15.49.29-.92.58-1.84.88-2.75.09-.27.17-.54.26-.8.44-1.39.88-2.78 1.31-4.15.71-2.21 1.4-4.4 2.09-6.57.26-.83.53-1.66.79-2.48.55-1.74 1.1-3.45 1.63-5.14.33-1 .64-2 .94-2.98.31-.98.63-1.95.93-2.91.27-.86.54-1.72.81-2.56.1-.33.2-.64.3-.95.19-.62.39-1.22.58-1.83.62-1.95 1.22-3.87 1.81-5.73.27-.84.54-1.67.8-2.48.29-.95.6-1.89.89-2.81.24-.76.48-1.52.71-2.26 4.81-15.16 7.97-25.15 7.97-25.15L589.37 454.9l25.22-61.61S771.01 542.8 765.05 601.22z"/><path class="cls-11" d="M710.97 476.45c-1.32 10.05-4.39 23.65-11.82 38.15-15.84 30.97-41.41 46.28-52.59 52.1-.08-.15-.17-.3-.25-.45-3.07-44.51-5.7-81.96-6.65-92.6-2.3-26.17-8.14-51.45-22.41-73.43-12.55-5.16-25.09-12.64-37.06-20.72 0 0 51.29-7.98 130.78 96.94z"/><path class="cls-7" d="M425.16 836.46c-5.63 7.66-23.95-8.53-29.11-12.98-7.78-6.69-19.86-18.76-19.86-18.76l-1.29.88s25.17 49.07 26.45 51.63c2.18 4.35-.1 7.1-1.36 7.81-1.9 1.09-5.45 1.21-9.47-3.64-6.07-7.32-25.99-34.04-31.53-46.23.68 1.73 11.58 29.43 12.68 41.39.37 4.1 1.1 10.68-3.55 11.52-5.31.97-8.25-8.05-8.81-9.4-3.82-9.18-11.69-31.23-13.45-41.55l-1.95-.28s-9.9 26.78-12.11 34.63c-.21.76-1.17 4.56-4.61 4.37-5.41-.3-4.65-5.59-4.55-6.68.52-5.4 2.3-22.8 5.06-32.57.97-3.44.9-7.07-.42-10.39-2.27-5.73-5.28-15.35-4.83-24.99-.57-1.07-16.38-30.29-33.07-66.65-1.09-2.37-2.18-4.78-3.28-7.21-.42-.94-.84-1.89-1.27-2.84a975.55 975.55 0 01-5.25-11.98c-.4-.94-.81-1.88-1.2-2.82-.86-2.01-1.72-4.03-2.56-6.06-.34-.82-.67-1.63-1.01-2.45-.15-.36-.29-.71-.44-1.07-.9-2.18-1.77-4.36-2.64-6.52-.52-1.27-1.01-2.54-1.5-3.8-.85-2.19-1.7-4.37-2.53-6.53-1.56-4.12-3.05-8.21-4.47-12.24-.21-.62-.43-1.24-.64-1.84-.21-.62-.43-1.24-.63-1.84-.84-2.46-1.64-4.87-2.4-7.26-.19-.58-.37-1.15-.55-1.72-.19-.63-.38-1.25-.57-1.86-.18-.58-.36-1.18-.54-1.76-.36-1.18-.71-2.35-1.03-3.5-1.68-5.79-3.1-11.37-4.19-16.63-.11-.52-.21-1.04-.33-1.56-.01-.06-.01-.11-.03-.16-.19-.99-.37-1.96-.54-2.93-.01-.03-.01-.07-.02-.11-.16-.9-.31-1.79-.45-2.66-.19-1.24-.36-2.44-.51-3.62-.1-.79-.19-1.57-.27-2.34-5.96-58.42 150.46-207.93 150.46-207.93l25.22 61.61-119.62 149.9s.24.75.68 2.16c.07.21.13.44.21.68l1.77 5.6c.13.44.28.89.43 1.35.53 1.66 1.11 3.5 1.75 5.52.2.65.42 1.32.64 2.01.54 1.72 1.11 3.54 1.73 5.47.11.38.24.77.37 1.17.63 1.99 1.29 4.08 1.98 6.25.26.81.53 1.64.79 2.48.04.15.09.28.13.43.37 1.16.74 2.32 1.11 3.51 1.02 3.21 2.09 6.57 3.19 10.04.31.98.63 1.98.94 2.98.01.02.02.06.02.09.21.65.42 1.3.63 1.96.33 1.02.65 2.05.98 3.09.26.82.53 1.65.79 2.48.68 2.17 1.38 4.36 2.09 6.57.44 1.37.88 2.76 1.31 4.15.09.26.17.53.26.8.29.91.58 1.83.88 2.75.52 1.62 1.02 3.24 1.54 4.86.35 1.08.7 2.17 1.04 3.26.77 2.46 1.56 4.92 2.34 7.38.22.71.46 1.41.68 2.13.45 1.41.9 2.83 1.35 4.24 6.13 19.27 12.11 38.02 16.7 52.28 5.43-2.19 14.1-3.6 22.64 3.72 13.95 11.95 33.46 8.62 37.15 16.97 3.05 6.89-9.33 9.84-18.77 8.12-6.92-1.25-14.03-6.64-13.96-4.77.08 1.86 2.73 13.07 7.01 17.89 4.86 5.48 31.28 31.05 32.64 32.06 10.15 7.57 5.55 11.97 5.55 11.97z"/><path d="M659.44 760.48c-41.13 26.67-97.45 35.71-149.01 37.24h-6.4c-51.56-1.54-107.88-10.58-149-37.24 0 0 7.39-110.93 13.22-195.54 3.02-43.94 5.63-80.77 6.56-91.29 2.31-26.17 8.14-51.45 22.41-73.43 1.8-3.28 6.06-9.97 14.26-14.97 10.22-6.24 20.24-6 23.89-5.74 44.71 17.5 100.74 18.81 144.82 0a69.828 69.828 0 0137.06 20.71c14.27 21.98 20.11 47.26 22.41 73.43 3.93 44.68 7.12 78.15 6.65 92.6-1.33 40.9.1 103.18 13.14 194.23z" fill="#f2a200"/><path class="cls-11" d="M435.36 379.5c-10.52 7.02-24.06 14.84-38.14 20.72-14.27 21.98-20.1 47.26-22.41 73.43-.93 10.52-3.54 47.36-6.56 91.29-55.95-21.7-63.66-88.5-63.66-88.5 79.48-104.93 130.77-96.94 130.77-96.94z"/><path d="M469.1 260.49s18.74 9.62 37.52 0c0 0 2.4 19.01-16.96 20.35-22.33 1.55-20.57-20.35-20.57-20.35z" fill="#7e291f"/><g clip-path="url(#clippath)"><path class="cls-2" d="M473.33 282.33s2.68-9.14 15.5-8.64 17.89 9.34 17.89 9.34-16.89 14.41-33.39-.7z"/><path class="cls-4" d="M503.62 260.49s.79 7.67-16.2 7.63c-16.99-.04-14.81-8.68-14.81-8.68l31 1.06z"/></g><path class="cls-1" d="M492.01 136.13s-3.69 29.06 30.05 37.06c33.73 8 10.08 38.08 48.7 43.44 0 0 9.89-7.58 23.99-2.45 0 0-1.89-114.57-104.14-114.57s-83.29 108.9-83.29 108.9 31.16.94 30.63-32.65c-.53-33.59 36.68-49.59 54.06-39.73z"/><path d="M509.72 142.26s-23.69-7.64-41.87 6.85c-18.18 14.48 3.15 79.14-67.24 70.54 0 0 10.13-15.69-2.13-47.61-12.07-31.41.14-104.73 97.11-84.17 5.04 1.07 9.96 2.76 14.39 5.38 11.25 6.62 25.25 21.52-.27 49.01z" fill="#381401"/><rect x="460.17" y="229.41" width="3.17" height="3.17" rx="1.59" ry="1.59"/><rect x="511.97" y="229.23" width="3.17" height="3.17" rx="1.59" ry="1.59"/></g></svg>